<svg width="258" height="69" viewBox="0 0 258 69" fill="none" xmlns="http://www.w3.org/2000/svg">
<g filter="url(#filter0_d_111_488)">
<rect x="1.99997" y="2" width="256" height="67" rx="5" fill="#1A181A"/>
<g filter="url(#filter1_d_111_488)">
<rect x="7" y="7" width="12" height="12" rx="6" fill="url(#paint0_linear_111_488)"/>
<rect x="16.7891" y="8.40381" width="1" height="12" transform="rotate(45 16.7891 8.40381)" fill="url(#paint1_linear_111_488)"/>
<rect x="16.7891" y="8.40381" width="1" height="12" transform="rotate(45 16.7891 8.40381)" fill="black" fill-opacity="0.2"/>
</g>
<g filter="url(#filter2_d_111_488)">
<rect x="241" y="52" width="12" height="12" rx="6" fill="url(#paint2_linear_111_488)"/>
<rect x="250.789" y="53.4038" width="1" height="12" transform="rotate(45 250.789 53.4038)" fill="url(#paint3_linear_111_488)"/>
<rect x="250.789" y="53.4038" width="1" height="12" transform="rotate(45 250.789 53.4038)" fill="black" fill-opacity="0.2"/>
</g>
<g filter="url(#filter3_i_111_488)">
<path d="M64.5645 15.0032C63.7848 14.977 62.9686 15.1129 62.1504 15.3782C60.5139 15.9088 58.799 16.9427 57.0391 18.3743C56.3494 18.9353 55.6534 19.5767 54.9551 20.2571C54.2722 19.5939 53.5905 18.9679 52.916 18.4192C51.1575 16.9888 49.4473 15.9564 47.8145 15.427C46.1816 14.8977 44.557 14.8813 43.2227 15.6516C41.8883 16.422 41.0904 17.8362 40.7324 19.5149C40.3745 21.1937 40.4119 23.1928 40.7715 25.4309C40.8964 26.2083 41.0764 27.0239 41.2793 27.8548C40.5169 28.0858 39.7764 28.3288 39.0898 28.5969C37.0177 29.4063 35.3032 30.3745 34.0547 31.5266C32.8062 32.6788 32 34.0771 32 35.6126C32 37.148 32.8062 38.5444 34.0547 39.6966C35.3032 40.8487 37.0177 41.8189 39.0898 42.6282C39.824 42.9149 40.6189 43.1731 41.4395 43.4173C41.1443 44.5201 40.9052 45.5903 40.7422 46.6048C40.3824 48.8447 40.3444 50.8441 40.7031 52.5266C41.0619 54.2092 41.8602 55.6314 43.2012 56.4055C44.5421 57.1797 46.174 57.1607 47.8105 56.6301C49.4471 56.0996 51.16 55.0676 52.9199 53.636C53.6033 53.0801 54.2945 52.446 54.9863 51.7727C55.6814 52.4497 56.3761 53.0874 57.0625 53.6458C58.821 55.0762 60.5332 56.1086 62.166 56.638C63.7988 57.1673 65.4215 57.1837 66.7559 56.4134C68.0902 55.643 68.8881 54.2288 69.2461 52.5501C69.6041 50.8713 69.5646 48.8722 69.2051 46.6341C69.0417 45.6168 68.8024 44.545 68.5059 43.4387C69.3535 43.1887 70.1735 42.9235 70.9297 42.6282C73.0018 41.8189 74.7163 40.8487 75.9648 39.6966C77.2134 38.5444 78.0195 37.148 78.0195 35.6126C78.0195 34.0771 77.2134 32.6788 75.9648 31.5266C74.7163 30.3745 73.0018 29.4063 70.9297 28.5969C70.2332 28.3249 69.4815 28.0788 68.707 27.845C68.9115 27.009 69.0931 26.1876 69.2187 25.4055C69.5786 23.1656 69.6166 21.1643 69.2578 19.4817C68.899 17.7992 68.0987 16.3789 66.7578 15.6048C66.0873 15.2177 65.3441 15.0294 64.5645 15.0032ZM64.4727 17.0384C64.9619 17.0517 65.3793 17.1682 65.7363 17.3743C66.4504 17.7866 66.9782 18.5889 67.2598 19.9094C67.5413 21.23 67.5316 23.0142 67.1992 25.0833C67.0854 25.7917 66.9202 26.5425 66.7324 27.3118C64.6875 26.8197 62.4467 26.4542 60.0586 26.2395C58.8589 24.5773 57.6257 23.0652 56.3828 21.7219C57.0399 21.0805 57.6928 20.4805 58.3301 19.9622C59.9558 18.6398 61.4949 17.7399 62.7793 17.3235C63.4215 17.1153 63.9834 17.025 64.4727 17.0384ZM45.4961 17.0442C45.9882 17.0305 46.5513 17.1206 47.1953 17.3294C48.4834 17.747 50.0252 18.6464 51.6523 19.97C52.2767 20.4778 52.9152 21.0647 53.5586 21.6907C52.3067 23.0446 51.0649 24.5725 49.8574 26.2493C47.4778 26.468 45.245 26.8368 43.209 27.3313C43.0225 26.5657 42.8594 25.8179 42.7461 25.1126C42.4134 23.0417 42.4051 21.2553 42.6875 19.9309C42.9699 18.6066 43.502 17.8001 44.2227 17.3841C44.583 17.176 45.004 17.0579 45.4961 17.0442ZM54.9863 23.1614C55.8008 24.0478 56.6158 25.0181 57.4238 26.0618C56.6298 26.0287 55.8261 26.0091 55.0098 26.0091C54.1772 26.0091 53.3582 26.0293 52.5488 26.0637C53.3571 25.0191 54.1715 24.0486 54.9863 23.1614ZM55.0098 28.0286C56.3697 28.0286 57.6951 28.0845 58.9844 28.179C59.8715 29.4531 60.7384 30.8049 61.5645 32.2356C62.2903 33.4928 62.9471 34.748 63.5449 35.9876C62.9408 37.2436 62.2729 38.5158 61.5371 39.7903C60.8894 40.9122 60.213 41.9778 59.5254 43.0051C58.0691 43.1269 56.5601 43.1946 55.0098 43.1946C53.4221 43.1946 51.8792 43.1229 50.3906 42.9954C49.7145 41.9828 49.0495 40.9314 48.4121 39.8274C47.678 38.5558 47.0133 37.2879 46.4102 36.0344C47.0159 34.7739 47.6835 33.497 48.4219 32.218C49.2436 30.7948 50.108 29.4509 50.9902 28.1829C52.2934 28.0862 53.6342 28.0286 55.0098 28.0286ZM61.5605 28.429C63.2083 28.6346 64.7554 28.9204 66.1953 29.263C65.7679 30.6641 65.2414 32.1276 64.6035 33.638C64.1893 32.8395 63.7604 32.0384 63.2969 31.2356C62.7355 30.2633 62.1518 29.3348 61.5605 28.429ZM48.3535 28.4446C47.7744 29.3339 47.2046 30.2434 46.6543 31.1966C46.1849 32.0096 45.747 32.8216 45.3281 33.6301C44.6957 32.1289 44.1724 30.6737 43.748 29.2805C45.1778 28.9372 46.7165 28.6526 48.3535 28.4446ZM68.1738 29.7942C68.8827 30.0087 69.5673 30.2325 70.1953 30.4778C72.1055 31.2239 73.6164 32.1073 74.5957 33.011C75.575 33.9147 76 34.7765 76 35.6126C76 36.4486 75.575 37.3104 74.5957 38.2141C73.6164 39.1178 72.1055 40.0013 70.1953 40.7473C69.4975 41.0199 68.7307 41.2671 67.9336 41.5012C67.365 39.7425 66.6392 37.9076 65.7754 36.0344C66.7686 33.8839 67.5709 31.7871 68.1738 29.7942ZM41.8125 29.804C42.4086 31.7769 43.2006 33.853 44.1797 35.9817C43.3102 37.8658 42.5809 39.7111 42.0098 41.4798C41.2407 41.2517 40.5 41.0113 39.8242 40.7473C37.9141 40.0013 36.4031 39.1178 35.4238 38.2141C34.4445 37.3104 34.0195 36.4486 34.0195 35.6126C34.0195 34.7765 34.4445 33.9147 35.4238 33.011C36.4031 32.1073 37.9141 31.2239 39.8242 30.4778C40.4425 30.2363 41.1157 30.0157 41.8125 29.804ZM55.0098 31.0188C52.2602 31.0188 50.0098 33.2692 50.0098 36.0188C50.0098 38.7684 52.2602 41.0188 55.0098 41.0188C57.7593 41.0188 60.0098 38.7684 60.0098 36.0188C60.0098 33.2692 57.7593 31.0188 55.0098 31.0188ZM55.0098 33.0188C56.6785 33.0188 58.0098 34.3501 58.0098 36.0188C58.0098 37.6875 56.6785 39.0188 55.0098 39.0188C53.3411 39.0188 52.0098 37.6875 52.0098 36.0188C52.0098 34.3501 53.3411 33.0188 55.0098 33.0188ZM64.6289 38.3821C65.1534 39.6233 65.6092 40.8379 65.9922 42.0091C64.7896 42.2879 63.5091 42.5229 62.1621 42.7083C62.5498 42.0896 62.9327 41.4594 63.3066 40.8118C63.7753 40 64.2106 39.1893 64.6289 38.3821ZM45.3516 38.3841C45.7721 39.1963 46.21 40.0106 46.6816 40.8274C47.0508 41.4669 47.4278 42.0912 47.8105 42.7024C46.4676 42.5162 45.191 42.2804 43.9922 42.0012C44.3734 40.8336 44.8295 39.6216 45.3516 38.3841ZM43.416 43.9426C45.2258 44.3714 47.1875 44.7007 49.2676 44.9153C50.6564 46.9241 52.1024 48.7281 53.5586 50.3059C52.9076 50.9407 52.2623 51.5364 51.6309 52.0501C50.0051 53.3725 48.4641 54.2704 47.1797 54.6868C45.8953 55.1032 44.9367 55.0483 44.2227 54.636C43.5086 54.2237 42.9828 53.4214 42.7012 52.1009C42.4196 50.7803 42.4274 48.9981 42.7598 46.929C42.9106 45.9903 43.1359 44.9852 43.416 43.9426ZM66.5703 43.9505C66.8526 44.9988 67.0789 46.0086 67.2305 46.9524C67.5632 49.0233 67.5715 50.8078 67.2891 52.1321C67.0067 53.4564 66.4765 54.2649 65.7559 54.6809C65.0352 55.097 64.0694 55.1532 62.7812 54.7356C61.4931 54.318 59.9513 53.4166 58.3242 52.093C57.6882 51.5757 57.0385 50.9771 56.3828 50.3372C57.8484 48.7534 59.3052 46.9396 60.7031 44.9192C62.7885 44.7061 64.7556 44.3787 66.5703 43.9505ZM51.877 45.1204C52.9037 45.1763 53.944 45.2141 55.0098 45.2141C56.0403 45.2141 57.0468 45.1786 58.041 45.1262C57.0247 46.4974 55.9888 47.744 54.957 48.8665C53.9259 47.7416 52.8919 46.4928 51.877 45.1204Z" fill="#00FBFF"/>
</g>
<g filter="url(#filter4_i_111_488)">
<path d="M89.0114 32V20.3636H93.6023C94.4811 20.3636 95.2311 20.5208 95.8523 20.8352C96.4773 21.1458 96.9527 21.5871 97.2784 22.1591C97.608 22.7273 97.7727 23.3958 97.7727 24.1648C97.7727 24.9375 97.6061 25.6023 97.2727 26.1591C96.9394 26.7121 96.4564 27.1364 95.8239 27.4318C95.1951 27.7273 94.4337 27.875 93.5398 27.875H90.4659V25.8977H93.142C93.6117 25.8977 94.0019 25.8333 94.3125 25.7045C94.6231 25.5758 94.8542 25.3826 95.0057 25.125C95.161 24.8674 95.2386 24.5473 95.2386 24.1648C95.2386 23.7784 95.161 23.4527 95.0057 23.1875C94.8542 22.9223 94.6212 22.7216 94.3068 22.5852C93.9962 22.4451 93.6042 22.375 93.1307 22.375H91.4716V32H89.0114ZM95.2955 26.7045L98.1875 32H95.4716L92.642 26.7045H95.2955ZM103.303 32.1705C102.405 32.1705 101.632 31.9886 100.984 31.625C100.34 31.2576 99.8442 30.7386 99.4957 30.0682C99.1473 29.3939 98.973 28.5966 98.973 27.6761C98.973 26.7784 99.1473 25.9905 99.4957 25.3125C99.8442 24.6345 100.335 24.1061 100.967 23.7273C101.604 23.3485 102.35 23.1591 103.206 23.1591C103.782 23.1591 104.318 23.2519 104.814 23.4375C105.314 23.6193 105.75 23.8939 106.121 24.2614C106.496 24.6288 106.787 25.0909 106.996 25.6477C107.204 26.2008 107.308 26.8485 107.308 27.5909V28.2557H99.9389V26.7557H105.03C105.03 26.4072 104.954 26.0985 104.803 25.8295C104.651 25.5606 104.441 25.3504 104.172 25.1989C103.907 25.0436 103.598 24.9659 103.246 24.9659C102.878 24.9659 102.553 25.0511 102.268 25.2216C101.988 25.3883 101.768 25.6136 101.609 25.8977C101.45 26.178 101.369 26.4905 101.365 26.8352V28.2614C101.365 28.6932 101.445 29.0663 101.604 29.3807C101.767 29.6951 101.996 29.9375 102.291 30.108C102.587 30.2784 102.937 30.3636 103.342 30.3636C103.611 30.3636 103.857 30.3258 104.081 30.25C104.304 30.1742 104.496 30.0606 104.655 29.9091C104.814 29.7576 104.935 29.572 105.018 29.3523L107.257 29.5C107.143 30.0379 106.911 30.5076 106.558 30.9091C106.21 31.3068 105.759 31.6174 105.206 31.8409C104.657 32.0606 104.022 32.1705 103.303 32.1705ZM111.376 32.1648C110.82 32.1648 110.323 32.0682 109.888 31.875C109.452 31.678 109.107 31.3883 108.854 31.0057C108.604 30.6193 108.479 30.1383 108.479 29.5625C108.479 29.0777 108.568 28.6705 108.746 28.3409C108.924 28.0114 109.166 27.7462 109.473 27.5455C109.78 27.3447 110.128 27.1932 110.518 27.0909C110.912 26.9886 111.325 26.9167 111.757 26.875C112.265 26.822 112.674 26.7727 112.984 26.7273C113.295 26.678 113.52 26.6061 113.661 26.5114C113.801 26.4167 113.871 26.2765 113.871 26.0909V26.0568C113.871 25.697 113.757 25.4186 113.53 25.2216C113.306 25.0246 112.988 24.9261 112.575 24.9261C112.14 24.9261 111.793 25.0227 111.536 25.2159C111.278 25.4053 111.107 25.6439 111.024 25.9318L108.786 25.75C108.899 25.2197 109.123 24.7614 109.456 24.375C109.789 23.9848 110.219 23.6856 110.746 23.4773C111.276 23.2652 111.89 23.1591 112.587 23.1591C113.071 23.1591 113.536 23.2159 113.979 23.3295C114.426 23.4432 114.821 23.6193 115.166 23.858C115.515 24.0966 115.789 24.4034 115.99 24.7784C116.191 25.1496 116.291 25.5947 116.291 26.1136V32H113.996V30.7898H113.928C113.787 31.0625 113.6 31.303 113.365 31.5114C113.13 31.7159 112.848 31.8769 112.518 31.9943C112.189 32.108 111.808 32.1648 111.376 32.1648ZM112.07 30.4943C112.426 30.4943 112.74 30.4242 113.013 30.2841C113.286 30.1402 113.5 29.947 113.655 29.7045C113.81 29.4621 113.888 29.1875 113.888 28.8807V27.9545C113.812 28.0038 113.708 28.0492 113.575 28.0909C113.446 28.1288 113.301 28.1648 113.138 28.1989C112.975 28.2292 112.812 28.2576 112.649 28.2841C112.486 28.3068 112.339 28.3277 112.206 28.3466C111.922 28.3883 111.674 28.4545 111.462 28.5455C111.25 28.6364 111.085 28.7595 110.967 28.9148C110.85 29.0663 110.791 29.2557 110.791 29.483C110.791 29.8125 110.911 30.0644 111.149 30.2386C111.392 30.4091 111.698 30.4943 112.07 30.4943ZM122.112 32.1705C121.218 32.1705 120.449 31.9811 119.805 31.6023C119.165 31.2197 118.673 30.6894 118.328 30.0114C117.987 29.3333 117.817 28.553 117.817 27.6705C117.817 26.7765 117.989 25.9924 118.334 25.3182C118.682 24.6402 119.177 24.1117 119.817 23.733C120.457 23.3504 121.218 23.1591 122.101 23.1591C122.862 23.1591 123.529 23.2973 124.101 23.5739C124.673 23.8504 125.125 24.2386 125.459 24.7386C125.792 25.2386 125.976 25.8258 126.01 26.5H123.726C123.661 26.0644 123.491 25.714 123.214 25.4489C122.942 25.1799 122.584 25.0455 122.141 25.0455C121.766 25.0455 121.438 25.1477 121.158 25.3523C120.881 25.553 120.665 25.8466 120.51 26.233C120.355 26.6193 120.277 27.0871 120.277 27.6364C120.277 28.1932 120.353 28.6667 120.504 29.0568C120.66 29.447 120.877 29.7443 121.158 29.9489C121.438 30.1534 121.766 30.2557 122.141 30.2557C122.417 30.2557 122.665 30.1989 122.885 30.0852C123.108 29.9716 123.292 29.8068 123.436 29.5909C123.584 29.3712 123.68 29.108 123.726 28.8011H126.01C125.972 29.4678 125.79 30.0549 125.464 30.5625C125.143 31.0663 124.697 31.4602 124.129 31.7443C123.561 32.0284 122.889 32.1705 122.112 32.1705ZM132.202 23.2727V25.0909H126.946V23.2727H132.202ZM128.139 21.1818H130.56V29.3182C130.56 29.5417 130.594 29.7159 130.662 29.8409C130.73 29.9621 130.825 30.0473 130.946 30.0966C131.071 30.1458 131.215 30.1705 131.378 30.1705C131.491 30.1705 131.605 30.161 131.719 30.142C131.832 30.1193 131.92 30.1023 131.98 30.0909L132.361 31.892C132.24 31.9299 132.069 31.9735 131.849 32.0227C131.63 32.0758 131.363 32.108 131.048 32.1193C130.465 32.142 129.954 32.0644 129.514 31.8864C129.079 31.7083 128.74 31.4318 128.497 31.0568C128.255 30.6818 128.135 30.2083 128.139 29.6364V21.1818ZM92.9091 51.1705C92.0152 51.1705 91.2462 50.9811 90.6023 50.6023C89.9621 50.2197 89.4697 49.6894 89.125 49.0114C88.7841 48.3333 88.6136 47.553 88.6136 46.6705C88.6136 45.7765 88.786 44.9924 89.1307 44.3182C89.4792 43.6402 89.9735 43.1117 90.6136 42.733C91.2538 42.3504 92.0152 42.1591 92.8977 42.1591C93.6591 42.1591 94.3258 42.2973 94.8977 42.5739C95.4697 42.8504 95.9223 43.2386 96.2557 43.7386C96.589 44.2386 96.7727 44.8258 96.8068 45.5H94.5227C94.4583 45.0644 94.2879 44.714 94.0114 44.4489C93.7386 44.1799 93.3807 44.0455 92.9375 44.0455C92.5625 44.0455 92.2348 44.1477 91.9545 44.3523C91.678 44.553 91.4621 44.8466 91.3068 45.233C91.1515 45.6193 91.0739 46.0871 91.0739 46.6364C91.0739 47.1932 91.1496 47.6667 91.3011 48.0568C91.4564 48.447 91.6742 48.7443 91.9545 48.9489C92.2348 49.1534 92.5625 49.2557 92.9375 49.2557C93.214 49.2557 93.4621 49.1989 93.6818 49.0852C93.9053 48.9716 94.089 48.8068 94.233 48.5909C94.3807 48.3712 94.4773 48.108 94.5227 47.8011H96.8068C96.7689 48.4678 96.5871 49.0549 96.2614 49.5625C95.9394 50.0663 95.4943 50.4602 94.9261 50.7443C94.358 51.0284 93.6856 51.1705 92.9091 51.1705ZM102.3 51.1705C101.417 51.1705 100.654 50.983 100.01 50.608C99.3698 50.2292 98.8755 49.7027 98.527 49.0284C98.1785 48.3504 98.0043 47.5644 98.0043 46.6705C98.0043 45.7689 98.1785 44.9811 98.527 44.3068C98.8755 43.6288 99.3698 43.1023 100.01 42.7273C100.654 42.3485 101.417 42.1591 102.3 42.1591C103.182 42.1591 103.944 42.3485 104.584 42.7273C105.228 43.1023 105.724 43.6288 106.072 44.3068C106.421 44.9811 106.595 45.7689 106.595 46.6705C106.595 47.5644 106.421 48.3504 106.072 49.0284C105.724 49.7027 105.228 50.2292 104.584 50.608C103.944 50.983 103.182 51.1705 102.3 51.1705ZM102.311 49.2955C102.713 49.2955 103.048 49.1818 103.317 48.9545C103.586 48.7235 103.788 48.4091 103.925 48.0114C104.065 47.6136 104.135 47.161 104.135 46.6534C104.135 46.1458 104.065 45.6932 103.925 45.2955C103.788 44.8977 103.586 44.5833 103.317 44.3523C103.048 44.1212 102.713 44.0057 102.311 44.0057C101.906 44.0057 101.565 44.1212 101.288 44.3523C101.016 44.5833 100.809 44.8977 100.669 45.2955C100.533 45.6932 100.464 46.1458 100.464 46.6534C100.464 47.161 100.533 47.6136 100.669 48.0114C100.809 48.4091 101.016 48.7235 101.288 48.9545C101.565 49.1818 101.906 49.2955 102.311 49.2955ZM108.169 51V42.2727H110.476V43.8125H110.578C110.76 43.3011 111.063 42.8977 111.487 42.6023C111.911 42.3068 112.419 42.1591 113.01 42.1591C113.608 42.1591 114.118 42.3087 114.538 42.608C114.959 42.9034 115.239 43.3049 115.379 43.8125H115.47C115.648 43.3125 115.97 42.9129 116.436 42.6136C116.906 42.3106 117.461 42.1591 118.101 42.1591C118.915 42.1591 119.576 42.4186 120.084 42.9375C120.595 43.4527 120.851 44.1837 120.851 45.1307V51H118.436V45.608C118.436 45.1231 118.307 44.7595 118.05 44.517C117.792 44.2746 117.47 44.1534 117.084 44.1534C116.644 44.1534 116.302 44.2936 116.055 44.5739C115.809 44.8504 115.686 45.2159 115.686 45.6705V51H113.339V45.5568C113.339 45.1288 113.216 44.7879 112.97 44.5341C112.728 44.2803 112.408 44.1534 112.01 44.1534C111.741 44.1534 111.499 44.2216 111.283 44.358C111.071 44.4905 110.902 44.678 110.777 44.9205C110.652 45.1591 110.589 45.4394 110.589 45.7614V51H108.169ZM122.763 54.2727V42.2727H125.149V43.7386H125.257C125.363 43.5038 125.517 43.2652 125.717 43.0227C125.922 42.7765 126.187 42.572 126.513 42.4091C126.842 42.2424 127.251 42.1591 127.74 42.1591C128.376 42.1591 128.964 42.3258 129.501 42.6591C130.039 42.9886 130.469 43.4867 130.791 44.1534C131.113 44.8163 131.274 45.6477 131.274 46.6477C131.274 47.6212 131.117 48.4432 130.803 49.1136C130.492 49.7803 130.068 50.286 129.53 50.6307C128.996 50.9716 128.397 51.142 127.734 51.142C127.265 51.142 126.865 51.0644 126.536 50.9091C126.21 50.7538 125.943 50.5587 125.734 50.3239C125.526 50.0852 125.367 49.8447 125.257 49.6023H125.183V54.2727H122.763ZM125.132 46.6364C125.132 47.1553 125.204 47.608 125.348 47.9943C125.492 48.3807 125.7 48.6818 125.973 48.8977C126.246 49.1098 126.577 49.2159 126.967 49.2159C127.361 49.2159 127.695 49.108 127.967 48.892C128.24 48.6723 128.446 48.3693 128.587 47.983C128.731 47.5928 128.803 47.1439 128.803 46.6364C128.803 46.1326 128.732 45.6894 128.592 45.3068C128.452 44.9242 128.246 44.625 127.973 44.4091C127.7 44.1932 127.365 44.0852 126.967 44.0852C126.573 44.0852 126.24 44.1894 125.967 44.3977C125.698 44.6061 125.492 44.9015 125.348 45.2841C125.204 45.6667 125.132 46.1174 125.132 46.6364ZM136.831 51.1705C135.948 51.1705 135.185 50.983 134.541 50.608C133.901 50.2292 133.407 49.7027 133.058 49.0284C132.71 48.3504 132.536 47.5644 132.536 46.6705C132.536 45.7689 132.71 44.9811 133.058 44.3068C133.407 43.6288 133.901 43.1023 134.541 42.7273C135.185 42.3485 135.948 42.1591 136.831 42.1591C137.714 42.1591 138.475 42.3485 139.115 42.7273C139.759 43.1023 140.255 43.6288 140.604 44.3068C140.952 44.9811 141.126 45.7689 141.126 46.6705C141.126 47.5644 140.952 48.3504 140.604 49.0284C140.255 49.7027 139.759 50.2292 139.115 50.608C138.475 50.983 137.714 51.1705 136.831 51.1705ZM136.842 49.2955C137.244 49.2955 137.579 49.1818 137.848 48.9545C138.117 48.7235 138.32 48.4091 138.456 48.0114C138.596 47.6136 138.666 47.161 138.666 46.6534C138.666 46.1458 138.596 45.6932 138.456 45.2955C138.32 44.8977 138.117 44.5833 137.848 44.3523C137.579 44.1212 137.244 44.0057 136.842 44.0057C136.437 44.0057 136.096 44.1212 135.82 44.3523C135.547 44.5833 135.34 44.8977 135.2 45.2955C135.064 45.6932 134.996 46.1458 134.996 46.6534C134.996 47.161 135.064 47.6136 135.2 48.0114C135.34 48.4091 135.547 48.7235 135.82 48.9545C136.096 49.1818 136.437 49.2955 136.842 49.2955ZM145.121 45.9545V51H142.7V42.2727H145.007V43.8125H145.109C145.303 43.3049 145.626 42.9034 146.081 42.608C146.536 42.3087 147.087 42.1591 147.734 42.1591C148.34 42.1591 148.869 42.2917 149.32 42.5568C149.77 42.822 150.121 43.2008 150.371 43.6932C150.621 44.1818 150.746 44.7652 150.746 45.4432V51H148.325V45.875C148.329 45.3409 148.193 44.9242 147.916 44.625C147.64 44.322 147.259 44.1705 146.774 44.1705C146.448 44.1705 146.161 44.2405 145.911 44.3807C145.664 44.5208 145.471 44.7254 145.331 44.9943C145.195 45.2595 145.125 45.5795 145.121 45.9545ZM156.631 51.1705C155.733 51.1705 154.96 50.9886 154.312 50.625C153.669 50.2576 153.172 49.7386 152.824 49.0682C152.475 48.3939 152.301 47.5966 152.301 46.6761C152.301 45.7784 152.475 44.9905 152.824 44.3125C153.172 43.6345 153.663 43.1061 154.295 42.7273C154.932 42.3485 155.678 42.1591 156.534 42.1591C157.11 42.1591 157.646 42.2519 158.142 42.4375C158.642 42.6193 159.078 42.8939 159.449 43.2614C159.824 43.6288 160.116 44.0909 160.324 44.6477C160.532 45.2008 160.636 45.8485 160.636 46.5909V47.2557H153.267V45.7557H158.358C158.358 45.4072 158.282 45.0985 158.131 44.8295C157.979 44.5606 157.769 44.3504 157.5 44.1989C157.235 44.0436 156.926 43.9659 156.574 43.9659C156.206 43.9659 155.881 44.0511 155.597 44.2216C155.316 44.3883 155.097 44.6136 154.938 44.8977C154.778 45.178 154.697 45.4905 154.693 45.8352V47.2614C154.693 47.6932 154.773 48.0663 154.932 48.3807C155.095 48.6951 155.324 48.9375 155.619 49.108C155.915 49.2784 156.265 49.3636 156.67 49.3636C156.939 49.3636 157.186 49.3258 157.409 49.25C157.633 49.1742 157.824 49.0606 157.983 48.9091C158.142 48.7576 158.263 48.572 158.347 48.3523L160.585 48.5C160.472 49.0379 160.239 49.5076 159.886 49.9091C159.538 50.3068 159.087 50.6174 158.534 50.8409C157.985 51.0606 157.35 51.1705 156.631 51.1705ZM164.636 45.9545V51H162.216V42.2727H164.523V43.8125H164.625C164.818 43.3049 165.142 42.9034 165.597 42.608C166.051 42.3087 166.602 42.1591 167.25 42.1591C167.856 42.1591 168.384 42.2917 168.835 42.5568C169.286 42.822 169.636 43.2008 169.886 43.6932C170.136 44.1818 170.261 44.7652 170.261 45.4432V51H167.841V45.875C167.845 45.3409 167.708 44.9242 167.432 44.625C167.155 44.322 166.775 44.1705 166.29 44.1705C165.964 44.1705 165.676 44.2405 165.426 44.3807C165.18 44.5208 164.987 44.7254 164.847 44.9943C164.71 45.2595 164.64 45.5795 164.636 45.9545ZM176.811 42.2727V44.0909H171.555V42.2727H176.811ZM172.749 40.1818H175.169V48.3182C175.169 48.5417 175.203 48.7159 175.271 48.8409C175.339 48.9621 175.434 49.0473 175.555 49.0966C175.68 49.1458 175.824 49.1705 175.987 49.1705C176.101 49.1705 176.214 49.161 176.328 49.142C176.442 49.1193 176.529 49.1023 176.589 49.0909L176.97 50.892C176.849 50.9299 176.679 50.9735 176.459 51.0227C176.239 51.0758 175.972 51.108 175.658 51.1193C175.074 51.142 174.563 51.0644 174.124 50.8864C173.688 50.7083 173.349 50.4318 173.107 50.0568C172.864 49.6818 172.745 49.2083 172.749 48.6364V40.1818ZM188.214 39.3636V51H185.794V39.3636H188.214ZM190.153 51V42.2727H192.574V51H190.153ZM191.369 41.1477C191.009 41.1477 190.701 41.0284 190.443 40.7898C190.189 40.5473 190.062 40.2576 190.062 39.9205C190.062 39.5871 190.189 39.3011 190.443 39.0625C190.701 38.8201 191.009 38.6989 191.369 38.6989C191.729 38.6989 192.036 38.8201 192.29 39.0625C192.547 39.3011 192.676 39.5871 192.676 39.9205C192.676 40.2576 192.547 40.5473 192.29 40.7898C192.036 41.0284 191.729 41.1477 191.369 41.1477ZM194.558 51V39.3636H196.979V43.7386H197.053C197.159 43.5038 197.312 43.2652 197.513 43.0227C197.717 42.7765 197.982 42.572 198.308 42.4091C198.638 42.2424 199.047 42.1591 199.536 42.1591C200.172 42.1591 200.759 42.3258 201.297 42.6591C201.835 42.9886 202.265 43.4867 202.587 44.1534C202.909 44.8163 203.07 45.6477 203.07 46.6477C203.07 47.6212 202.912 48.4432 202.598 49.1136C202.287 49.7803 201.863 50.286 201.325 50.6307C200.791 50.9716 200.193 51.142 199.53 51.142C199.06 51.142 198.661 51.0644 198.331 50.9091C198.005 50.7538 197.738 50.5587 197.53 50.3239C197.321 50.0852 197.162 49.8447 197.053 49.6023H196.945V51H194.558ZM196.928 46.6364C196.928 47.1553 197 47.608 197.143 47.9943C197.287 48.3807 197.496 48.6818 197.768 48.8977C198.041 49.1098 198.373 49.2159 198.763 49.2159C199.157 49.2159 199.49 49.108 199.763 48.892C200.036 48.6723 200.242 48.3693 200.382 47.983C200.526 47.5928 200.598 47.1439 200.598 46.6364C200.598 46.1326 200.528 45.6894 200.388 45.3068C200.248 44.9242 200.041 44.625 199.768 44.4091C199.496 44.1932 199.161 44.0852 198.763 44.0852C198.369 44.0852 198.036 44.1894 197.763 44.3977C197.494 44.6061 197.287 44.9015 197.143 45.2841C197 45.6667 196.928 46.1174 196.928 46.6364ZM204.685 51V42.2727H207.031V43.7955H207.122C207.281 43.2538 207.548 42.8447 207.923 42.5682C208.298 42.2879 208.73 42.1477 209.219 42.1477C209.34 42.1477 209.471 42.1553 209.611 42.1705C209.751 42.1856 209.874 42.2064 209.98 42.233V44.3807C209.866 44.3466 209.709 44.3163 209.509 44.2898C209.308 44.2633 209.124 44.25 208.957 44.25C208.601 44.25 208.283 44.3277 208.003 44.483C207.726 44.6345 207.507 44.8466 207.344 45.1193C207.185 45.392 207.105 45.7064 207.105 46.0625V51H204.685ZM213.47 51.1648C212.913 51.1648 212.417 51.0682 211.982 50.875C211.546 50.678 211.201 50.3883 210.947 50.0057C210.697 49.6193 210.572 49.1383 210.572 48.5625C210.572 48.0777 210.661 47.6705 210.839 47.3409C211.018 47.0114 211.26 46.7462 211.567 46.5455C211.874 46.3447 212.222 46.1932 212.612 46.0909C213.006 45.9886 213.419 45.9167 213.851 45.875C214.358 45.822 214.768 45.7727 215.078 45.7273C215.389 45.678 215.614 45.6061 215.754 45.5114C215.894 45.4167 215.964 45.2765 215.964 45.0909V45.0568C215.964 44.697 215.851 44.4186 215.624 44.2216C215.4 44.0246 215.082 43.9261 214.669 43.9261C214.233 43.9261 213.887 44.0227 213.629 44.2159C213.372 44.4053 213.201 44.6439 213.118 44.9318L210.879 44.75C210.993 44.2197 211.216 43.7614 211.55 43.375C211.883 42.9848 212.313 42.6856 212.839 42.4773C213.37 42.2652 213.983 42.1591 214.68 42.1591C215.165 42.1591 215.629 42.2159 216.072 42.3295C216.519 42.4432 216.915 42.6193 217.26 42.858C217.608 43.0966 217.883 43.4034 218.084 43.7784C218.285 44.1496 218.385 44.5947 218.385 45.1136V51H216.089V49.7898H216.021C215.881 50.0625 215.694 50.303 215.459 50.5114C215.224 50.7159 214.942 50.8769 214.612 50.9943C214.283 51.108 213.902 51.1648 213.47 51.1648ZM214.163 49.4943C214.519 49.4943 214.834 49.4242 215.107 49.2841C215.379 49.1402 215.593 48.947 215.749 48.7045C215.904 48.4621 215.982 48.1875 215.982 47.8807V46.9545C215.906 47.0038 215.802 47.0492 215.669 47.0909C215.54 47.1288 215.394 47.1648 215.232 47.1989C215.069 47.2292 214.906 47.2576 214.743 47.2841C214.58 47.3068 214.432 47.3277 214.3 47.3466C214.016 47.3883 213.768 47.4545 213.555 47.5455C213.343 47.6364 213.179 47.7595 213.061 47.9148C212.944 48.0663 212.885 48.2557 212.885 48.483C212.885 48.8125 213.004 49.0644 213.243 49.2386C213.485 49.4091 213.792 49.4943 214.163 49.4943ZM220.263 51V42.2727H222.609V43.7955H222.7C222.859 43.2538 223.126 42.8447 223.501 42.5682C223.876 42.2879 224.308 42.1477 224.797 42.1477C224.918 42.1477 225.049 42.1553 225.189 42.1705C225.329 42.1856 225.452 42.2064 225.558 42.233V44.3807C225.445 44.3466 225.287 44.3163 225.087 44.2898C224.886 44.2633 224.702 44.25 224.536 44.25C224.179 44.25 223.861 44.3277 223.581 44.483C223.304 44.6345 223.085 44.8466 222.922 45.1193C222.763 45.392 222.683 45.7064 222.683 46.0625V51H220.263ZM228.57 54.2727C228.263 54.2727 227.975 54.2481 227.706 54.1989C227.441 54.1534 227.221 54.0947 227.047 54.0227L227.592 52.2159C227.876 52.303 228.132 52.3504 228.359 52.358C228.59 52.3655 228.789 52.3125 228.956 52.1989C229.126 52.0852 229.265 51.892 229.371 51.6193L229.513 51.25L226.382 42.2727H228.928L230.734 48.6818H230.825L232.649 42.2727H235.212L231.82 51.9432C231.657 52.4129 231.435 52.822 231.155 53.1705C230.878 53.5227 230.528 53.7936 230.104 53.983C229.679 54.1761 229.168 54.2727 228.57 54.2727Z" fill="white"/>
<path d="M140.271 26.9091L140.413 24.7102L138.572 25.9432L137.811 24.6023L139.794 23.6364L137.811 22.6705L138.572 21.3295L140.413 22.5625L140.271 20.3636H141.8L141.652 22.5625L143.493 21.3295L144.254 22.6705L142.277 23.6364L144.254 24.6023L143.493 25.9432L141.652 24.7102L141.8 26.9091H140.271Z" fill="#B20000"/>
</g>
</g>
<defs>
<filter id="filter0_d_111_488" x="-3.05176e-05" y="0" width="258" height="69" filterUnits="userSpaceOnUse" color-interpolation-filters="sRGB">
<feFlood flood-opacity="0" result="BackgroundImageFix"/>
<feColorMatrix in="SourceAlpha" type="matrix" values="0 0 0 0 0 0 0 0 0 0 0 0 0 0 0 0 0 0 127 0" result="hardAlpha"/>
<feOffset dx="-1" dy="-1"/>
<feGaussianBlur stdDeviation="0.5"/>
<feComposite in2="hardAlpha" operator="out"/>
<feColorMatrix type="matrix" values="0 0 0 0 0.268083 0 0 0 0 0.268083 0 0 0 0 0.268083 0 0 0 0.44 0"/>
<feBlend mode="normal" in2="BackgroundImageFix" result="effect1_dropShadow_111_488"/>
<feBlend mode="normal" in="SourceGraphic" in2="effect1_dropShadow_111_488" result="shape"/>
</filter>
<filter id="filter1_d_111_488" x="7" y="7" width="13.6" height="13.6" filterUnits="userSpaceOnUse" color-interpolation-filters="sRGB">
<feFlood flood-opacity="0" result="BackgroundImageFix"/>
<feColorMatrix in="SourceAlpha" type="matrix" values="0 0 0 0 0 0 0 0 0 0 0 0 0 0 0 0 0 0 127 0" result="hardAlpha"/>
<feOffset dx="0.8" dy="0.8"/>
<feGaussianBlur stdDeviation="0.4"/>
<feComposite in2="hardAlpha" operator="out"/>
<feColorMatrix type="matrix" values="0 0 0 0 0 0 0 0 0 0 0 0 0 0 0 0 0 0 0.25 0"/>
<feBlend mode="normal" in2="BackgroundImageFix" result="effect1_dropShadow_111_488"/>
<feBlend mode="normal" in="SourceGraphic" in2="effect1_dropShadow_111_488" result="shape"/>
</filter>
<filter id="filter2_d_111_488" x="241" y="52" width="13.6" height="13.6" filterUnits="userSpaceOnUse" color-interpolation-filters="sRGB">
<feFlood flood-opacity="0" result="BackgroundImageFix"/>
<feColorMatrix in="SourceAlpha" type="matrix" values="0 0 0 0 0 0 0 0 0 0 0 0 0 0 0 0 0 0 127 0" result="hardAlpha"/>
<feOffset dx="0.8" dy="0.8"/>
<feGaussianBlur stdDeviation="0.4"/>
<feComposite in2="hardAlpha" operator="out"/>
<feColorMatrix type="matrix" values="0 0 0 0 0 0 0 0 0 0 0 0 0 0 0 0 0 0 0.25 0"/>
<feBlend mode="normal" in2="BackgroundImageFix" result="effect1_dropShadow_111_488"/>
<feBlend mode="normal" in="SourceGraphic" in2="effect1_dropShadow_111_488" result="shape"/>
</filter>
<filter id="filter3_i_111_488" x="32" y="15" width="47.0195" height="43.0162" filterUnits="userSpaceOnUse" color-interpolation-filters="sRGB">
<feFlood flood-opacity="0" result="BackgroundImageFix"/>
<feBlend mode="normal" in="SourceGraphic" in2="BackgroundImageFix" result="shape"/>
<feColorMatrix in="SourceAlpha" type="matrix" values="0 0 0 0 0 0 0 0 0 0 0 0 0 0 0 0 0 0 127 0" result="hardAlpha"/>
<feOffset dx="1" dy="1"/>
<feGaussianBlur stdDeviation="1"/>
<feComposite in2="hardAlpha" operator="arithmetic" k2="-1" k3="1"/>
<feColorMatrix type="matrix" values="0 0 0 0 0 0 0 0 0 0 0 0 0 0 0 0 0 0 0.57 0"/>
<feBlend mode="normal" in2="shape" result="effect1_innerShadow_111_488"/>
</filter>
<filter id="filter4_i_111_488" x="88.6136" y="20.3636" width="147.598" height="34.9091" filterUnits="userSpaceOnUse" color-interpolation-filters="sRGB">
<feFlood flood-opacity="0" result="BackgroundImageFix"/>
<feBlend mode="normal" in="SourceGraphic" in2="BackgroundImageFix" result="shape"/>
<feColorMatrix in="SourceAlpha" type="matrix" values="0 0 0 0 0 0 0 0 0 0 0 0 0 0 0 0 0 0 127 0" result="hardAlpha"/>
<feOffset dx="1" dy="1"/>
<feGaussianBlur stdDeviation="1"/>
<feComposite in2="hardAlpha" operator="arithmetic" k2="-1" k3="1"/>
<feColorMatrix type="matrix" values="0 0 0 0 0 0 0 0 0 0 0 0 0 0 0 0 0 0 0.57 0"/>
<feBlend mode="normal" in2="shape" result="effect1_innerShadow_111_488"/>
</filter>
<linearGradient id="paint0_linear_111_488" x1="9.5" y1="8.1" x2="16.5" y2="17.6" gradientUnits="userSpaceOnUse">
<stop stop-color="#353535"/>
<stop offset="1" stop-color="#4D4D4D"/>
</linearGradient>
<linearGradient id="paint1_linear_111_488" x1="17.2184" y1="14.4745" x2="16.7941" y2="14.4745" gradientUnits="userSpaceOnUse">
<stop stop-opacity="0"/>
<stop offset="1" stop-color="#202020"/>
</linearGradient>
<linearGradient id="paint2_linear_111_488" x1="243.5" y1="53.1" x2="250.5" y2="62.6" gradientUnits="userSpaceOnUse">
<stop stop-color="#353535"/>
<stop offset="1" stop-color="#4D4D4D"/>
</linearGradient>
<linearGradient id="paint3_linear_111_488" x1="251.218" y1="59.4745" x2="250.794" y2="59.4745" gradientUnits="userSpaceOnUse">
<stop stop-opacity="0"/>
<stop offset="1" stop-color="#202020"/>
</linearGradient>
</defs>
</svg>
