<svg width="96" height="17" viewBox="0 0 96 17" fill="none" xmlns="http://www.w3.org/2000/svg">
<g filter="url(#filter0_i_37_2098)">
<mask id="path-1-inside-1_37_2098" fill="white">
<path d="M9.17917 16L0.563172 16L0.467172 13.696L4.01917 7.86401L0.323172 7.86401L0.323172 4.50401L8.93917 4.50401L9.08317 6.64001L5.65117 12.688L9.17917 12.688L9.17917 16ZM9.55305 7.91201C9.55305 6.74401 9.90505 5.84001 10.609 5.20001C11.329 4.54401 12.313 4.21601 13.561 4.21601C14.809 4.21601 16.073 4.37601 17.353 4.69601L16.945 8.03201C15.313 7.66401 14.217 7.48001 13.657 7.48001C13.321 7.48001 13.153 7.61601 13.153 7.88801C13.153 8.06401 13.337 8.22401 13.705 8.36801C14.985 8.83202 15.945 9.36002 16.585 9.95202C17.241 10.544 17.569 11.432 17.569 12.616C17.569 13.8 17.265 14.704 16.657 15.328C16.049 15.936 15.113 16.24 13.849 16.24C12.601 16.24 11.353 16.08 10.105 15.76L10.369 12.52C11.969 12.952 13.001 13.168 13.465 13.168C13.945 13.168 14.185 13.056 14.185 12.832C14.185 12.608 14.009 12.432 13.657 12.304C12.233 11.76 11.193 11.184 10.537 10.576C9.88105 9.95201 9.55305 9.06401 9.55305 7.91201ZM28.2922 16L23.8522 16L22.3882 11.584L22.2922 11.584L22.2922 16L18.3802 16L18.3802 0.616014L22.3402 0.616014L22.3402 9.08801L22.4362 9.08801L24.1882 4.50401L28.3882 4.50401L25.9642 10.24L28.2922 16ZM35.4774 16.024C34.2934 16.168 33.2614 16.24 32.3814 16.24C31.5174 16.24 30.8374 16.016 30.3414 15.568C29.8614 15.104 29.6214 14.312 29.6214 13.192L29.6214 7.62402L28.4694 7.62402L28.4694 4.64801L29.8134 4.64801L30.0294 2.44002L33.6534 2.44002L33.6534 4.64801L35.7894 4.64801L35.6214 7.62402L33.6294 7.62402L33.6294 12.4C33.6294 12.736 33.7894 12.904 34.1094 12.904C34.1414 12.904 34.6374 12.88 35.5974 12.832L35.4774 16.024ZM41.0296 7.91201C41.0296 6.74401 41.3816 5.84001 42.0856 5.20001C42.8056 4.54401 43.7896 4.21601 45.0376 4.21601C46.2856 4.21601 47.5496 4.37601 48.8296 4.69601L48.4216 8.03201C46.7896 7.66401 45.6936 7.48001 45.1336 7.48001C44.7976 7.48001 44.6296 7.61601 44.6296 7.88801C44.6296 8.06401 44.8136 8.22401 45.1816 8.36801C46.4616 8.83202 47.4216 9.36002 48.0616 9.95202C48.7176 10.544 49.0456 11.432 49.0456 12.616C49.0456 13.8 48.7416 14.704 48.1336 15.328C47.5256 15.936 46.5896 16.24 45.3256 16.24C44.0776 16.24 42.8296 16.08 41.5816 15.76L41.8456 12.52C43.4456 12.952 44.4776 13.168 44.9416 13.168C45.4216 13.168 45.6616 13.056 45.6616 12.832C45.6616 12.608 45.4856 12.432 45.1336 12.304C43.7096 11.76 42.6696 11.184 42.0136 10.576C41.3576 9.95201 41.0296 9.06401 41.0296 7.91201ZM56.3367 16.024C55.1527 16.168 54.1207 16.24 53.2407 16.24C52.3767 16.24 51.6967 16.016 51.2007 15.568C50.7207 15.104 50.4807 14.312 50.4807 13.192L50.4807 7.62402L49.3287 7.62402L49.3287 4.64801L50.6727 4.64801L50.8887 2.44002L54.5127 2.44002L54.5127 4.64801L56.6487 4.64801L56.4807 7.62402L54.4887 7.62402L54.4887 12.4C54.4887 12.736 54.6487 12.904 54.9687 12.904C55.0007 12.904 55.4967 12.88 56.4567 12.832L56.3367 16.024ZM60.3299 16.24C58.4259 16.24 57.4739 15.184 57.4739 13.072L57.4739 4.50401L61.5539 4.50401L61.5539 12.088C61.5539 12.488 61.7299 12.688 62.0819 12.688C62.5299 12.688 62.9059 12.576 63.2099 12.352L63.2099 4.50401L67.2419 4.50401L67.2419 15.952L63.4259 15.952L63.4259 15.112L63.3299 15.112C62.4499 15.864 61.4499 16.24 60.3299 16.24ZM78.853 16.144L77.245 16.24C76.013 16.24 75.261 15.832 74.989 15.016L74.869 15.016C74.341 15.832 73.533 16.24 72.445 16.24C71.005 16.24 69.989 15.736 69.397 14.728C68.821 13.72 68.533 12.224 68.533 10.24C68.533 8.24002 68.861 6.73601 69.517 5.72801C70.173 4.72001 71.117 4.21601 72.349 4.21601C73.197 4.21601 73.853 4.41601 74.317 4.81601L74.317 0.616014L78.325 0.616014L78.325 12.472C78.325 12.776 78.389 12.984 78.517 13.096C78.645 13.192 78.877 13.24 79.213 13.24L78.853 16.144ZM73.405 7.60001C73.069 7.60001 72.845 7.80801 72.733 8.22402C72.621 8.62401 72.565 9.20801 72.565 9.97601C72.565 10.728 72.573 11.24 72.589 11.512C72.605 11.784 72.637 12.064 72.685 12.352C72.749 12.624 72.837 12.816 72.949 12.928C73.077 13.024 73.277 13.072 73.549 13.072C73.837 13.072 74.133 13 74.437 12.856L74.437 7.88801C74.101 7.69601 73.757 7.60001 73.405 7.60001ZM84.1705 16L80.2105 16L80.2105 4.62401L84.1705 4.62401L84.1705 16ZM80.5225 3.71201C80.1865 3.42401 80.0185 2.96001 80.0185 2.32001C80.0185 1.68001 80.1865 1.20801 80.5225 0.904015C80.8585 0.600015 81.4105 0.448015 82.1785 0.448015C82.9465 0.448015 83.4985 0.600015 83.8345 0.904015C84.1705 1.20801 84.3385 1.68001 84.3385 2.32001C84.3385 2.94401 84.1705 3.40801 83.8345 3.71201C83.4985 4.00001 82.9465 4.14401 82.1785 4.14401C81.4105 4.14401 80.8585 4.00001 80.5225 3.71201ZM85.5007 10.216C85.5007 8.10401 85.9007 6.57601 86.7007 5.63201C87.5167 4.68801 88.7807 4.21601 90.4927 4.21601C92.2207 4.21601 93.4767 4.68001 94.2607 5.60801C95.0447 6.53601 95.4367 8.06401 95.4367 10.192C95.4367 12.304 95.0527 13.84 94.2847 14.8C93.5167 15.76 92.2607 16.24 90.5167 16.24C88.7727 16.24 87.5007 15.76 86.7007 14.8C85.9007 13.84 85.5007 12.312 85.5007 10.216ZM91.2607 7.93601C91.1647 7.61601 90.9087 7.45602 90.4927 7.45602C90.0767 7.45602 89.8127 7.61601 89.7007 7.93601C89.5887 8.25601 89.5327 8.92801 89.5327 9.95202L89.5327 10.528C89.5327 11.664 89.5887 12.4 89.7007 12.736C89.8127 13.072 90.0687 13.24 90.4687 13.24C90.8847 13.24 91.1487 13.072 91.2607 12.736C91.3727 12.4 91.4287 11.712 91.4287 10.672L91.4287 9.97601C91.4287 8.93601 91.3727 8.25601 91.2607 7.93601Z"/>
</mask>
<path d="M9.17917 16L9.17917 18L11.1792 18L11.1792 16L9.17917 16ZM0.563172 16L-1.43509 16.0833L-1.35523 18L0.563172 18L0.563172 16ZM0.467172 13.696L-1.24095 12.6557L-1.55634 13.1735L-1.53109 13.7793L0.467172 13.696ZM4.01917 7.86401L5.7273 8.90436L7.57903 5.86401L4.01917 5.86401L4.01917 7.86401ZM0.323171 7.86401L-1.67683 7.86401L-1.67683 9.86401L0.323171 9.86401L0.323171 7.86401ZM0.323171 4.50401L0.323171 2.50401L-1.67683 2.50401L-1.67683 4.50401L0.323171 4.50401ZM8.93917 4.50401L10.9346 4.36949L10.8089 2.50401L8.93917 2.50401L8.93917 4.50401ZM9.08317 6.64001L10.8226 7.62708L11.119 7.10473L11.0786 6.50549L9.08317 6.64001ZM5.65117 12.688L3.91172 11.7009L2.21668 14.688L5.65117 14.688L5.65117 12.688ZM9.17917 12.688L11.1792 12.688L11.1792 10.688L9.17917 10.688L9.17917 12.688ZM9.17917 14L0.563172 14L0.563172 18L9.17917 18L9.17917 14ZM2.56144 15.9168L2.46544 13.6128L-1.53109 13.7793L-1.43509 16.0833L2.56144 15.9168ZM2.1753 14.7364L5.7273 8.90436L2.31105 6.82368L-1.24095 12.6557L2.1753 14.7364ZM4.01917 5.86401L0.323171 5.86401L0.323171 9.86401L4.01917 9.86401L4.01917 5.86401ZM2.32317 7.86401L2.32317 4.50401L-1.67683 4.50401L-1.67683 7.86401L2.32317 7.86401ZM0.323171 6.50401L8.93917 6.50401L8.93917 2.50401L0.323171 2.50401L0.323171 6.50401ZM6.9437 4.63854L7.0877 6.77454L11.0786 6.50549L10.9346 4.36949L6.9437 4.63854ZM7.34372 5.65294L3.91172 11.7009L7.39062 13.6751L10.8226 7.62708L7.34372 5.65294ZM5.65117 14.688L9.17917 14.688L9.17917 10.688L5.65117 10.688L5.65117 14.688ZM7.17917 12.688L7.17917 16L11.1792 16L11.1792 12.688L7.17917 12.688ZM10.609 5.20002L11.9544 6.6799L11.956 6.67841L10.609 5.20002ZM17.353 4.69601L19.3383 4.93881L19.5528 3.18441L17.8381 2.75573L17.353 4.69601ZM16.945 8.03201L16.5051 9.98303L18.6619 10.4694L18.9303 8.27481L16.945 8.03201ZM13.705 8.36802L12.9762 10.2305L12.9997 10.2397L13.0234 10.2483L13.705 8.36802ZM16.585 9.95201L15.227 11.4202L15.236 11.4286L15.2451 11.4368L16.585 9.95201ZM16.657 15.328L18.0713 16.7422L18.0804 16.733L18.0895 16.7237L16.657 15.328ZM10.105 15.76L8.11165 15.5976L7.97469 17.2785L9.6083 17.6973L10.105 15.76ZM10.369 12.52L10.8904 10.5892L8.57078 9.96286L8.37565 12.3576L10.369 12.52ZM13.657 12.304L12.9433 14.1723L12.9584 14.1781L12.9736 14.1836L13.657 12.304ZM10.537 10.576L9.15862 12.0251L9.16801 12.0341L9.17752 12.0429L10.537 10.576ZM11.553 7.91201C11.553 7.16911 11.7598 6.8568 11.9544 6.6799L9.2637 3.72013C8.0503 4.82323 7.55305 6.31892 7.55305 7.91201L11.553 7.91201ZM11.956 6.67841C12.2131 6.44419 12.6666 6.21601 13.561 6.21601L13.561 2.21601C11.9595 2.21601 10.445 2.64383 9.26207 3.72162L11.956 6.67841ZM13.561 6.21601C14.6365 6.21601 15.7376 6.3537 16.868 6.6363L17.8381 2.75573C16.4085 2.39833 14.9816 2.21601 13.561 2.21601L13.561 6.21601ZM15.3678 4.45322L14.9598 7.78922L18.9303 8.27481L19.3383 4.93881L15.3678 4.45322ZM17.385 6.081C15.7898 5.72129 14.4767 5.48001 13.657 5.48001L13.657 9.48001C13.9574 9.48001 14.8363 9.60674 16.5051 9.98303L17.385 6.081ZM13.657 5.48001C13.2712 5.48001 12.6109 5.54968 12.0207 6.02752C11.3496 6.57079 11.153 7.31874 11.153 7.88801L15.153 7.88801C15.153 8.18529 15.0405 8.72924 14.5374 9.13651C14.1152 9.47835 13.7069 9.48001 13.657 9.48001L13.657 5.48001ZM11.153 7.88801C11.153 8.75269 11.6253 9.34195 11.9787 9.64923C12.3173 9.94365 12.6944 10.1202 12.9762 10.2305L14.4338 6.50553C14.3477 6.47183 14.4488 6.49638 14.6034 6.6308C14.7728 6.77808 15.153 7.19934 15.153 7.88801L11.153 7.88801ZM13.0234 10.2483C14.1783 10.6669 14.8614 11.0821 15.227 11.4202L17.9431 8.48382C17.0287 7.63794 15.7918 6.9971 14.3866 6.48774L13.0234 10.2483ZM15.2451 11.4368C15.3514 11.5327 15.569 11.7963 15.569 12.616L19.569 12.616C19.569 11.0677 19.1307 9.55532 17.925 8.46723L15.2451 11.4368ZM15.569 12.616C15.569 13.4699 15.354 13.7994 15.2246 13.9323L18.0895 16.7237C19.176 15.6086 19.569 14.1301 19.569 12.616L15.569 12.616ZM15.2428 13.9138C15.155 14.0016 14.831 14.24 13.849 14.24L13.849 18.24C15.3951 18.24 16.943 17.8704 18.0713 16.7422L15.2428 13.9138ZM13.849 14.24C12.774 14.24 11.6928 14.1024 10.6018 13.8227L9.6083 17.6973C11.0133 18.0576 12.4281 18.24 13.849 18.24L13.849 14.24ZM12.0984 15.9224L12.3624 12.6824L8.37565 12.3576L8.11165 15.5976L12.0984 15.9224ZM9.84771 14.4509C10.6664 14.6719 11.3651 14.8447 11.9333 14.9636C12.458 15.0734 13.0085 15.168 13.465 15.168L13.465 11.168C13.4851 11.168 13.4396 11.1687 13.2964 11.148C13.1635 11.1289 12.9844 11.0969 12.7528 11.0484C12.289 10.9514 11.6717 10.8001 10.8904 10.5892L9.84771 14.4509ZM13.465 15.168C13.7974 15.168 14.3305 15.1392 14.8508 14.8964C15.1367 14.763 15.4884 14.5323 15.7675 14.1415C16.0606 13.7311 16.185 13.2675 16.185 12.832L12.185 12.832C12.185 12.5085 12.2795 12.1429 12.5126 11.8165C12.7317 11.5097 12.9934 11.349 13.1593 11.2716C13.4396 11.1409 13.6127 11.168 13.465 11.168L13.465 15.168ZM16.185 12.832C16.185 11.2726 14.8858 10.6227 14.3405 10.4244L12.9736 14.1836C12.9736 14.1836 12.9735 14.1836 12.9732 14.1835C12.973 14.1834 12.9727 14.1833 12.9723 14.1831C12.9715 14.1828 12.9702 14.1823 12.9685 14.1816C12.9652 14.1803 12.96 14.1781 12.9532 14.175C12.9398 14.1689 12.9181 14.1584 12.8901 14.1423C12.8366 14.1114 12.743 14.0504 12.6388 13.9462C12.3974 13.7048 12.185 13.3117 12.185 12.832L16.185 12.832ZM14.3708 10.4357C13.0413 9.92782 12.2777 9.46238 11.8966 9.10915L9.17752 12.0429C10.1084 12.9056 11.4248 13.5922 12.9433 14.1723L14.3708 10.4357ZM11.9155 9.1269C11.7579 8.97697 11.553 8.67416 11.553 7.91201L7.55305 7.91201C7.55305 9.45387 8.00423 10.9271 9.15862 12.0251L11.9155 9.1269ZM28.2922 16L28.2922 18L31.2577 18L30.1465 15.2506L28.2922 16ZM23.8522 16L21.9538 16.6294L22.4082 18L23.8522 18L23.8522 16ZM22.3882 11.584L24.2866 10.9547L23.8322 9.58401L22.3882 9.58401L22.3882 11.584ZM22.2922 11.584L22.2922 9.58401L20.2922 9.58401L20.2922 11.584L22.2922 11.584ZM22.2922 16L22.2922 18L24.2922 18L24.2922 16L22.2922 16ZM18.3802 16L16.3802 16L16.3802 18L18.3802 18L18.3802 16ZM18.3802 0.616014L18.3802 -1.38399L16.3802 -1.38399L16.3802 0.616014L18.3802 0.616014ZM22.3402 0.616014L24.3402 0.616014L24.3402 -1.38399L22.3402 -1.38399L22.3402 0.616014ZM22.3402 9.08801L20.3402 9.08801L20.3402 11.088L22.3402 11.088L22.3402 9.08801ZM22.4362 9.08801L22.4362 11.088L23.8129 11.088L24.3044 9.80204L22.4362 9.08801ZM24.1882 4.50401L24.1882 2.50401L22.8115 2.50401L22.32 3.78999L24.1882 4.50401ZM28.3882 4.50401L30.2304 5.28254L31.4046 2.50401L28.3882 2.50401L28.3882 4.50401ZM25.9642 10.24L24.1219 9.46149L23.8001 10.223L24.1099 10.9895L25.9642 10.24ZM28.2922 14L23.8522 14L23.8522 18L28.2922 18L28.2922 14ZM25.7506 15.3707L24.2866 10.9547L20.4898 12.2134L21.9538 16.6294L25.7506 15.3707ZM22.3882 9.58401L22.2922 9.58401L22.2922 13.584L22.3882 13.584L22.3882 9.58401ZM20.2922 11.584L20.2922 16L24.2922 16L24.2922 11.584L20.2922 11.584ZM22.2922 14L18.3802 14L18.3802 18L22.2922 18L22.2922 14ZM20.3802 16L20.3802 0.616014L16.3802 0.616014L16.3802 16L20.3802 16ZM18.3802 2.61601L22.3402 2.61601L22.3402 -1.38399L18.3802 -1.38399L18.3802 2.61601ZM20.3402 0.616014L20.3402 9.08801L24.3402 9.08801L24.3402 0.616014L20.3402 0.616014ZM22.3402 11.088L22.4362 11.088L22.4362 7.08801L22.3402 7.08801L22.3402 11.088ZM24.3044 9.80204L26.0564 5.21804L22.32 3.78999L20.568 8.37399L24.3044 9.80204ZM24.1882 6.50401L28.3882 6.50401L28.3882 2.50401L24.1882 2.50401L24.1882 6.50401ZM26.5459 3.72549L24.1219 9.46149L27.8064 11.0185L30.2304 5.28254L26.5459 3.72549ZM24.1099 10.9895L26.4379 16.7495L30.1465 15.2506L27.8184 9.49058L24.1099 10.9895ZM35.4774 16.024L35.7188 18.0094L37.4119 17.8035L37.4759 16.0991L35.4774 16.024ZM30.3414 15.568L28.9513 17.006L28.9757 17.0295L29.0008 17.0522L30.3414 15.568ZM29.6214 7.62401L31.6214 7.62401L31.6214 5.62401L29.6214 5.62401L29.6214 7.62401ZM28.4694 7.62401L26.4694 7.62401L26.4694 9.62401L28.4694 9.62401L28.4694 7.62401ZM28.4694 4.64802L28.4694 2.64802L26.4694 2.64802L26.4694 4.64802L28.4694 4.64802ZM29.8134 4.64802L29.8134 6.64802L31.6273 6.64802L31.8039 4.84274L29.8134 4.64802ZM30.0294 2.44002L30.0294 0.440015L28.2155 0.440015L28.0389 2.24529L30.0294 2.44002ZM33.6534 2.44002L35.6534 2.44002L35.6534 0.440015L33.6534 0.440015L33.6534 2.44002ZM33.6534 4.64802L31.6534 4.64802L31.6534 6.64802L33.6534 6.64802L33.6534 4.64802ZM35.7894 4.64802L37.7862 4.76074L37.9054 2.64802L35.7894 2.64802L35.7894 4.64802ZM35.6214 7.62401L35.6214 9.62401L37.5116 9.62401L37.6182 7.73674L35.6214 7.62401ZM33.6294 7.62401L33.6294 5.62401L31.6294 5.62401L31.6294 7.62401L33.6294 7.62401ZM35.5974 12.832L37.5959 12.9072L37.678 10.7255L35.4975 10.8345L35.5974 12.832ZM35.2359 14.0386C34.1059 14.1761 33.1581 14.24 32.3814 14.24L32.3814 18.24C33.3646 18.24 34.4808 18.16 35.7188 18.0094L35.2359 14.0386ZM32.3814 14.24C31.8636 14.24 31.713 14.1118 31.6819 14.0838L29.0008 17.0522C29.9617 17.9202 31.1712 18.24 32.3814 18.24L32.3814 14.24ZM31.7314 14.13C31.7883 14.1851 31.76 14.1932 31.7154 14.046C31.6685 13.8911 31.6214 13.62 31.6214 13.192L27.6214 13.192C27.6214 14.506 27.8872 15.9774 28.9513 17.006L31.7314 14.13ZM31.6214 13.192L31.6214 7.62401L27.6214 7.62401L27.6214 13.192L31.6214 13.192ZM29.6214 5.62401L28.4694 5.62401L28.4694 9.62401L29.6214 9.62401L29.6214 5.62401ZM30.4694 7.62401L30.4694 4.64802L26.4694 4.64802L26.4694 7.62401L30.4694 7.62401ZM28.4694 6.64802L29.8134 6.64802L29.8134 2.64802L28.4694 2.64802L28.4694 6.64802ZM31.8039 4.84274L32.0199 2.63474L28.0389 2.24529L27.8229 4.45329L31.8039 4.84274ZM30.0294 4.44002L33.6534 4.44002L33.6534 0.440015L30.0294 0.440015L30.0294 4.44002ZM31.6534 2.44002L31.6534 4.64802L35.6534 4.64802L35.6534 2.44002L31.6534 2.44002ZM33.6534 6.64802L35.7894 6.64802L35.7894 2.64802L33.6534 2.64802L33.6534 6.64802ZM33.7925 4.53529L33.6245 7.51129L37.6182 7.73674L37.7862 4.76074L33.7925 4.53529ZM35.6214 5.62401L33.6294 5.62401L33.6294 9.62401L35.6214 9.62401L35.6214 5.62401ZM31.6294 7.62401L31.6294 12.4L35.6294 12.4L35.6294 7.62401L31.6294 7.62401ZM31.6294 12.4C31.6294 12.8526 31.7355 13.5634 32.3011 14.1573C32.8841 14.7695 33.6155 14.904 34.1094 14.904L34.1094 10.904C34.2832 10.904 34.7746 10.9545 35.1976 11.3987C35.6033 11.8246 35.6294 12.2834 35.6294 12.4L31.6294 12.4ZM34.1094 14.904C34.2078 14.904 34.7953 14.8746 35.6972 14.8295L35.4975 10.8345C35.0178 10.8585 34.6551 10.8764 34.4087 10.8884C34.2853 10.8943 34.1926 10.8987 34.1295 10.9016C34.0977 10.903 34.0757 10.904 34.0621 10.9045C34.0246 10.9061 34.0627 10.904 34.1094 10.904L34.1094 14.904ZM33.5988 12.7569L33.4788 15.9489L37.4759 16.0991L37.5959 12.9072L33.5988 12.7569ZM42.0856 5.20002L43.431 6.6799L43.4326 6.67841L42.0856 5.20002ZM48.8296 4.69601L50.8148 4.93881L51.0294 3.18441L49.3147 2.75573L48.8296 4.69601ZM48.4216 8.03201L47.9817 9.98303L50.1384 10.4694L50.4068 8.27481L48.4216 8.03201ZM45.1816 8.36802L44.4528 10.2305L44.4763 10.2397L44.5 10.2483L45.1816 8.36802ZM48.0616 9.95201L46.7035 11.4202L46.7126 11.4286L46.7217 11.4368L48.0616 9.95201ZM48.1336 15.328L49.5478 16.7422L49.557 16.733L49.5661 16.7237L48.1336 15.328ZM41.5816 15.76L39.5882 15.5976L39.4513 17.2785L41.0849 17.6973L41.5816 15.76ZM41.8456 12.52L42.3669 10.5892L40.0473 9.96286L39.8522 12.3576L41.8456 12.52ZM45.1336 12.304L44.4199 14.1723L44.435 14.1781L44.4501 14.1836L45.1336 12.304ZM42.0136 10.576L40.6352 12.0251L40.6446 12.0341L40.6541 12.0429L42.0136 10.576ZM43.0296 7.91201C43.0296 7.16911 43.2364 6.8568 43.431 6.6799L40.7403 3.72013C39.5269 4.82323 39.0296 6.31892 39.0296 7.91201L43.0296 7.91201ZM43.4326 6.67841C43.6897 6.44419 44.1431 6.21601 45.0376 6.21601L45.0376 2.21601C43.4361 2.21601 41.9216 2.64383 40.7386 3.72162L43.4326 6.67841ZM45.0376 6.21601C46.113 6.21601 47.2141 6.3537 48.3445 6.6363L49.3147 2.75573C47.8851 2.39833 46.4582 2.21601 45.0376 2.21601L45.0376 6.21601ZM46.8444 4.45322L46.4364 7.78922L50.4068 8.27481L50.8148 4.93881L46.8444 4.45322ZM48.8615 6.081C47.2663 5.72129 45.9533 5.48001 45.1336 5.48001L45.1336 9.48001C45.4339 9.48001 46.3129 9.60674 47.9817 9.98303L48.8615 6.081ZM45.1336 5.48001C44.7477 5.48001 44.0875 5.54968 43.4972 6.02752C42.8261 6.57079 42.6296 7.31874 42.6296 7.88801L46.6296 7.88801C46.6296 8.18529 46.5171 8.72924 46.014 9.13651C45.5917 9.47835 45.1835 9.48001 45.1336 9.48001L45.1336 5.48001ZM42.6296 7.88801C42.6296 8.75269 43.1019 9.34195 43.4552 9.64923C43.7938 9.94365 44.1709 10.1202 44.4528 10.2305L45.9104 6.50553C45.8243 6.47183 45.9254 6.49638 46.08 6.6308C46.2493 6.77808 46.6296 7.19934 46.6296 7.88801L42.6296 7.88801ZM44.5 10.2483C45.6549 10.6669 46.338 11.0821 46.7035 11.4202L49.4197 8.48382C48.5052 7.63794 47.2683 6.9971 45.8632 6.48774L44.5 10.2483ZM46.7217 11.4368C46.828 11.5327 47.0456 11.7963 47.0456 12.616L51.0456 12.616C51.0456 11.0677 50.6073 9.55532 49.4015 8.46723L46.7217 11.4368ZM47.0456 12.616C47.0456 13.4699 46.8306 13.7994 46.7011 13.9323L49.5661 16.7237C50.6526 15.6086 51.0456 14.1301 51.0456 12.616L47.0456 12.616ZM46.7194 13.9138C46.6316 14.0016 46.3075 14.24 45.3256 14.24L45.3256 18.24C46.8717 18.24 48.4196 17.8704 49.5478 16.7422L46.7194 13.9138ZM45.3256 14.24C44.2505 14.24 43.1693 14.1024 42.0784 13.8227L41.0849 17.6973C42.4899 18.0576 43.9047 18.24 45.3256 18.24L45.3256 14.24ZM43.575 15.9224L43.839 12.6824L39.8522 12.3576L39.5882 15.5976L43.575 15.9224ZM41.3243 14.4509C42.143 14.6719 42.8416 14.8447 43.4099 14.9636C43.9346 15.0734 44.4851 15.168 44.9416 15.168L44.9416 11.168C44.9617 11.168 44.9161 11.1687 44.7729 11.148C44.64 11.1289 44.4609 11.0969 44.2293 11.0484C43.7656 10.9514 43.1483 10.8001 42.3669 10.5892L41.3243 14.4509ZM44.9416 15.168C45.274 15.168 45.8071 15.1392 46.3274 14.8964C46.6132 14.763 46.9649 14.5323 47.2441 14.1415C47.5372 13.7311 47.6616 13.2675 47.6616 12.832L43.6616 12.832C43.6616 12.5085 43.756 12.1429 43.9891 11.8165C44.2083 11.5097 44.47 11.349 44.6358 11.2716C44.9161 11.1409 45.0892 11.168 44.9416 11.168L44.9416 15.168ZM47.6616 12.832C47.6616 11.2726 46.3624 10.6227 45.8171 10.4244L44.4501 14.1836C44.4501 14.1836 44.45 14.1836 44.4498 14.1835C44.4496 14.1834 44.4493 14.1833 44.4489 14.1831C44.448 14.1828 44.4468 14.1823 44.4451 14.1816C44.4418 14.1803 44.4366 14.1781 44.4298 14.175C44.4164 14.1689 44.3947 14.1584 44.3667 14.1423C44.3131 14.1114 44.2196 14.0504 44.1154 13.9462C43.874 13.7048 43.6616 13.3117 43.6616 12.832L47.6616 12.832ZM45.8473 10.4357C44.5179 9.92782 43.7542 9.46238 43.3731 9.10915L40.6541 12.0429C41.585 12.9056 42.9013 13.5922 44.4199 14.1723L45.8473 10.4357ZM43.392 9.1269C43.2344 8.97697 43.0296 8.67416 43.0296 7.91201L39.0296 7.91201C39.0296 9.45387 39.4808 10.9271 40.6352 12.0251L43.392 9.1269ZM56.3367 16.024L56.5782 18.0094L58.2713 17.8035L58.3353 16.0991L56.3367 16.024ZM51.2007 15.568L49.8107 17.006L49.835 17.0295L49.8602 17.0522L51.2007 15.568ZM50.4807 7.62401L52.4807 7.62401L52.4807 5.62401L50.4807 5.62401L50.4807 7.62401ZM49.3287 7.62401L47.3287 7.62401L47.3287 9.62401L49.3287 9.62401L49.3287 7.62401ZM49.3287 4.64802L49.3287 2.64802L47.3287 2.64802L47.3287 4.64802L49.3287 4.64802ZM50.6727 4.64802L50.6727 6.64802L52.4866 6.64802L52.6632 4.84274L50.6727 4.64802ZM50.8887 2.44002L50.8887 0.440015L49.0748 0.440015L48.8982 2.24529L50.8887 2.44002ZM54.5127 2.44002L56.5127 2.44002L56.5127 0.440015L54.5127 0.440015L54.5127 2.44002ZM54.5127 4.64802L52.5127 4.64802L52.5127 6.64802L54.5127 6.64802L54.5127 4.64802ZM56.6487 4.64802L58.6456 4.76074L58.7648 2.64802L56.6487 2.64802L56.6487 4.64802ZM56.4807 7.62401L56.4807 9.62401L58.371 9.62401L58.4776 7.73674L56.4807 7.62401ZM54.4887 7.62401L54.4887 5.62401L52.4887 5.62401L52.4887 7.62401L54.4887 7.62401ZM56.4567 12.832L58.4553 12.9072L58.5373 10.7255L56.3569 10.8345L56.4567 12.832ZM56.0953 14.0386C54.9653 14.1761 54.0174 14.24 53.2407 14.24L53.2407 18.24C54.224 18.24 55.3401 18.16 56.5782 18.0094L56.0953 14.0386ZM53.2407 14.24C52.7229 14.24 52.5723 14.1118 52.5413 14.0838L49.8602 17.0522C50.8211 17.9202 52.0305 18.24 53.2407 18.24L53.2407 14.24ZM52.5908 14.13C52.6477 14.1851 52.6194 14.1932 52.5748 14.046C52.5279 13.8911 52.4807 13.62 52.4807 13.192L48.4807 13.192C48.4807 14.506 48.7466 15.9774 49.8107 17.006L52.5908 14.13ZM52.4807 13.192L52.4807 7.62401L48.4807 7.62401L48.4807 13.192L52.4807 13.192ZM50.4807 5.62401L49.3287 5.62401L49.3287 9.62401L50.4807 9.62401L50.4807 5.62401ZM51.3287 7.62401L51.3287 4.64802L47.3287 4.64802L47.3287 7.62401L51.3287 7.62401ZM49.3287 6.64802L50.6727 6.64802L50.6727 2.64802L49.3287 2.64802L49.3287 6.64802ZM52.6632 4.84274L52.8792 2.63474L48.8982 2.24529L48.6822 4.45329L52.6632 4.84274ZM50.8887 4.44002L54.5127 4.44002L54.5127 0.440015L50.8887 0.440015L50.8887 4.44002ZM52.5127 2.44002L52.5127 4.64802L56.5127 4.64802L56.5127 2.44002L52.5127 2.44002ZM54.5127 6.64802L56.6487 6.64802L56.6487 2.64802L54.5127 2.64802L54.5127 6.64802ZM54.6519 4.53529L54.4839 7.51129L58.4776 7.73674L58.6456 4.76074L54.6519 4.53529ZM56.4807 5.62401L54.4887 5.62401L54.4887 9.62401L56.4807 9.62401L56.4807 5.62401ZM52.4887 7.62401L52.4887 12.4L56.4887 12.4L56.4887 7.62401L52.4887 7.62401ZM52.4887 12.4C52.4887 12.8526 52.5948 13.5634 53.1605 14.1573C53.7435 14.7695 54.4749 14.904 54.9687 14.904L54.9687 10.904C55.1426 10.904 55.634 10.9545 56.057 11.3987C56.4626 11.8246 56.4887 12.2834 56.4887 12.4L52.4887 12.4ZM54.9687 14.904C55.0672 14.904 55.6547 14.8746 56.5566 14.8295L56.3569 10.8345C55.8771 10.8585 55.5144 10.8764 55.2681 10.8884C55.1446 10.8943 55.052 10.8987 54.9889 10.9016C54.9571 10.903 54.9351 10.904 54.9215 10.9045C54.8839 10.9061 54.9221 10.904 54.9687 10.904L54.9687 14.904ZM54.4581 12.7569L54.3381 15.9489L58.3353 16.0991L58.4553 12.9072L54.4581 12.7569ZM57.4739 4.50401L57.4739 2.50401L55.4739 2.50401L55.4739 4.50401L57.4739 4.50401ZM61.5539 4.50401L63.5539 4.50401L63.5539 2.50401L61.5539 2.50401L61.5539 4.50401ZM63.2099 12.352L64.3963 13.9621L65.2099 13.3626L65.2099 12.352L63.2099 12.352ZM63.2099 4.50401L63.2099 2.50401L61.2099 2.50401L61.2099 4.50401L63.2099 4.50401ZM67.2419 4.50401L69.2419 4.50401L69.2419 2.50401L67.2419 2.50401L67.2419 4.50401ZM67.2419 15.952L67.2419 17.952L69.2419 17.952L69.2419 15.952L67.2419 15.952ZM63.4259 15.952L61.4259 15.952L61.4259 17.952L63.4259 17.952L63.4259 15.952ZM63.4259 15.112L65.4259 15.112L65.4259 13.112L63.4259 13.112L63.4259 15.112ZM63.3299 15.112L63.3299 13.112L62.5918 13.112L62.0306 13.5916L63.3299 15.112ZM60.3299 14.24C60.0337 14.24 59.8612 14.1984 59.774 14.1661C59.6984 14.1382 59.6795 14.1156 59.6734 14.1088C59.6578 14.0915 59.4739 13.868 59.4739 13.072L55.4739 13.072C55.4739 14.388 55.766 15.7485 56.7025 16.7872C57.6744 17.8653 59.013 18.24 60.3299 18.24L60.3299 14.24ZM59.4739 13.072L59.4739 4.50401L55.4739 4.50401L55.4739 13.072L59.4739 13.072ZM57.4739 6.50401L61.5539 6.50401L61.5539 2.50401L57.4739 2.50401L57.4739 6.50401ZM59.5539 4.50401L59.5539 12.088L63.5539 12.088L63.5539 4.50401L59.5539 4.50401ZM59.5539 12.088C59.5539 12.5379 59.6474 13.2489 60.1845 13.8593C60.7646 14.5184 61.5265 14.688 62.0819 14.688L62.0819 10.688C62.2853 10.688 62.7833 10.7576 63.1873 11.2168C63.5485 11.6271 63.5539 12.0381 63.5539 12.088L59.5539 12.088ZM62.0819 14.688C62.8749 14.688 63.688 14.484 64.3963 13.9621L62.0235 10.7419C62.0425 10.7279 62.0626 10.7158 62.0824 10.706C62.1022 10.6962 62.1184 10.6904 62.129 10.6872C62.1504 10.6809 62.1395 10.688 62.0819 10.688L62.0819 14.688ZM65.2099 12.352L65.2099 4.50401L61.2099 4.50401L61.2099 12.352L65.2099 12.352ZM63.2099 6.50401L67.2419 6.50401L67.2419 2.50401L63.2099 2.50401L63.2099 6.50401ZM65.2419 4.50401L65.2419 15.952L69.2419 15.952L69.2419 4.50401L65.2419 4.50401ZM67.2419 13.952L63.4259 13.952L63.4259 17.952L67.2419 17.952L67.2419 13.952ZM65.4259 15.952L65.4259 15.112L61.4259 15.112L61.4259 15.952L65.4259 15.952ZM63.4259 13.112L63.3299 13.112L63.3299 17.112L63.4259 17.112L63.4259 13.112ZM62.0306 13.5916C61.4995 14.0454 60.9564 14.24 60.3299 14.24L60.3299 18.24C61.9435 18.24 63.4003 17.6826 64.6292 16.6325L62.0306 13.5916ZM78.8531 16.144L78.9722 18.1405L80.6332 18.0413L80.8379 16.3901L78.8531 16.144ZM77.245 16.24L77.245 18.24L77.3047 18.24L77.3642 18.2365L77.245 16.24ZM74.989 15.016L76.8864 14.3836L76.4306 13.016L74.989 13.016L74.989 15.016ZM74.869 15.016L74.869 13.016L73.781 13.016L73.1899 13.9295L74.869 15.016ZM69.397 14.728L67.6606 15.7203L67.6665 15.7306L67.6725 15.7409L69.397 14.728ZM69.517 5.72801L67.8408 4.6371V4.6371L69.517 5.72801ZM74.317 4.81602L73.0112 6.33083L76.317 9.18073L76.317 4.81602L74.317 4.81602ZM74.317 0.616014L74.317 -1.38399L72.317 -1.38399L72.317 0.616014L74.317 0.616014ZM78.3251 0.616014L80.3251 0.616014L80.3251 -1.38399L78.3251 -1.38399L78.3251 0.616014ZM78.517 13.096L77.2 14.6012L77.2568 14.6508L77.317 14.696L78.517 13.096ZM79.213 13.24L81.1979 13.4861L81.4763 11.24L79.213 11.24L79.213 13.24ZM72.733 8.22402L74.659 8.76328L74.6617 8.75363L74.6643 8.74396L72.733 8.22402ZM72.685 12.352L70.7123 12.6808L70.7231 12.7459L70.7382 12.8101L72.685 12.352ZM72.949 12.928L71.5348 14.3422L71.6353 14.4427L71.749 14.528L72.949 12.928ZM74.437 12.856L75.2932 14.6635L76.437 14.1217L76.437 12.856L74.437 12.856ZM74.437 7.88801L76.437 7.88801L76.437 6.72737L75.4293 6.15153L74.437 7.88801ZM78.7339 14.1476L77.1259 14.2436L77.3642 18.2365L78.9722 18.1405L78.7339 14.1476ZM77.245 14.24C77.0444 14.24 76.9045 14.2231 76.8139 14.2045C76.7241 14.186 76.6978 14.169 76.7108 14.1761C76.7283 14.1855 76.7719 14.2142 76.817 14.2682C76.862 14.322 76.8814 14.3684 76.8864 14.3836L73.0917 15.6485C73.3871 16.5348 73.9787 17.2446 74.8033 17.6919C75.5727 18.1094 76.433 18.24 77.245 18.24L77.245 14.24ZM74.989 13.016L74.869 13.016L74.869 17.016L74.989 17.016L74.989 13.016ZM73.1899 13.9295C73.0796 14.1 72.9503 14.24 72.445 14.24L72.445 18.24C74.1158 18.24 75.6025 17.564 76.5482 16.1025L73.1899 13.9295ZM72.445 14.24C71.5224 14.24 71.2669 13.9625 71.1216 13.7152L67.6725 15.7409C68.7112 17.5095 70.4877 18.24 72.445 18.24L72.445 14.24ZM71.1335 13.7357C70.8127 13.1743 70.533 12.0923 70.533 10.24L66.533 10.24C66.533 12.3558 66.8294 14.2657 67.6606 15.7203L71.1335 13.7357ZM70.533 10.24C70.533 8.39691 70.8465 7.35189 71.1933 6.81893L67.8408 4.6371C66.8756 6.12014 66.533 8.08312 66.533 10.24L70.533 10.24ZM71.1933 6.81893C71.4695 6.39449 71.7737 6.21601 72.349 6.21601L72.349 2.21601C70.4604 2.21601 68.8765 3.04554 67.8408 4.6371L71.1933 6.81893ZM72.349 6.21601C72.6201 6.21601 72.7933 6.24845 72.8938 6.27908C72.9426 6.29396 72.9725 6.30785 72.9886 6.31647C73.0042 6.32482 73.0102 6.33002 73.0112 6.33083L75.6229 3.3012C74.6774 2.48611 73.4927 2.21601 72.349 2.21601L72.349 6.21601ZM76.317 4.81602L76.317 0.616014L72.317 0.616014L72.317 4.81602L76.317 4.81602ZM74.317 2.61601L78.3251 2.61601L78.3251 -1.38399L74.317 -1.38399L74.317 2.61601ZM76.3251 0.616014L76.3251 12.472L80.3251 12.472L80.3251 0.616014L76.3251 0.616014ZM76.3251 12.472C76.3251 12.9281 76.3972 13.8987 77.2 14.6012L79.8341 11.5909C80.1177 11.839 80.2375 12.1148 80.2846 12.2678C80.3293 12.4132 80.3251 12.4973 80.3251 12.472L76.3251 12.472ZM77.317 14.696C78.0087 15.2147 78.8329 15.24 79.213 15.24L79.213 11.24C79.1296 11.24 79.1325 11.2331 79.1923 11.2455C79.2252 11.2523 79.2901 11.268 79.3753 11.3021C79.4602 11.336 79.5826 11.3952 79.717 11.496L77.317 14.696ZM77.2282 12.994L76.8682 15.898L80.8379 16.3901L81.1979 13.4861L77.2282 12.994ZM73.405 5.60001C72.7866 5.60001 72.1441 5.80761 71.6241 6.29043C71.1464 6.73408 70.9173 7.27526 70.8018 7.70407L74.6643 8.74396C74.6608 8.75677 74.5997 8.98595 74.3459 9.2216C74.05 9.49642 73.6875 9.60001 73.405 9.60001L73.405 5.60001ZM70.8071 7.68475C70.6207 8.35051 70.565 9.1522 70.565 9.97602L74.565 9.97602C74.565 9.26383 74.6214 8.89752 74.659 8.76328L70.8071 7.68475ZM70.565 9.97602C70.565 10.7219 70.5725 11.2903 70.5925 11.6295L74.5856 11.3946C74.5735 11.1897 74.565 10.7341 74.565 9.97602L70.565 9.97602ZM70.5925 11.6295C70.6129 11.9771 70.6534 12.3278 70.7123 12.6808L74.6578 12.0232C74.6207 11.8003 74.5971 11.5909 74.5856 11.3946L70.5925 11.6295ZM70.7382 12.8101C70.8307 13.2033 71.0274 13.8348 71.5348 14.3422L74.3633 11.5138C74.521 11.6716 74.5932 11.8144 74.6172 11.8667C74.6428 11.9226 74.6426 11.9396 74.6319 11.8939L70.7382 12.8101ZM71.749 14.528C72.3918 15.0101 73.1176 15.072 73.549 15.072L73.549 11.072C73.5231 11.072 73.569 11.069 73.6618 11.0912C73.7545 11.1135 73.942 11.1727 74.149 11.328L71.749 14.528ZM73.549 15.072C74.1789 15.072 74.7663 14.9131 75.2932 14.6635L73.5809 11.0485C73.5392 11.0683 73.5174 11.0739 73.5143 11.0747C73.5122 11.0752 73.5249 11.072 73.549 11.072L73.549 15.072ZM76.437 12.856L76.437 7.88801L72.437 7.88801L72.437 12.856L76.437 12.856ZM75.4293 6.15153C74.822 5.80446 74.139 5.60001 73.405 5.60001L73.405 9.60001C73.4018 9.60001 73.398 9.59977 73.3943 9.59926C73.3906 9.59874 73.3888 9.59822 73.3895 9.59841C73.39 9.59857 73.4081 9.60353 73.4448 9.6245L75.4293 6.15153ZM84.1705 16L84.1705 18L86.1705 18L86.1705 16L84.1705 16ZM80.2105 16L78.2105 16L78.2105 18L80.2105 18L80.2105 16ZM80.2105 4.62401L80.2105 2.62401L78.2105 2.62401L78.2105 4.62401L80.2105 4.62401ZM84.1705 4.62401L86.1705 4.62401L86.1705 2.62401L84.1705 2.62401L84.1705 4.62401ZM83.8345 0.904015L82.4927 2.38709V2.38709L83.8345 0.904015ZM83.8345 3.71202L85.1361 5.23053L85.1565 5.21308L85.1764 5.19509L83.8345 3.71202ZM84.1705 14L80.2105 14L80.2105 18L84.1705 18L84.1705 14ZM82.2105 16L82.2105 4.62401L78.2105 4.62401L78.2105 16L82.2105 16ZM80.2105 6.62401L84.1705 6.62401L84.1705 2.62401L80.2105 2.62401L80.2105 6.62401ZM82.1705 4.62401L82.1705 16L86.1705 16L86.1705 4.62401L82.1705 4.62401ZM81.8241 2.1935C81.881 2.24226 81.9277 2.2963 81.9634 2.34954C81.9985 2.40183 82.0168 2.44418 82.0251 2.46713C82.0397 2.50743 82.0185 2.4732 82.0185 2.32001L78.0185 2.32001C78.0185 3.27614 78.2723 4.41741 79.221 5.23053L81.8241 2.1935ZM82.0185 2.32001C82.0185 2.16817 82.0393 2.12703 82.0288 2.15666C82.0227 2.17377 82.0081 2.20854 81.9793 2.25288C81.95 2.29801 81.9115 2.34449 81.8644 2.38709L79.1807 -0.579057C78.2759 0.239552 78.0185 1.35444 78.0185 2.32001L82.0185 2.32001ZM81.8644 2.38709C81.7476 2.49272 81.6675 2.50457 81.7195 2.49025C81.7751 2.47493 81.9171 2.44802 82.1785 2.44802L82.1785 -1.55198C81.2335 -1.55198 80.067 -1.38091 79.1807 -0.579057L81.8644 2.38709ZM82.1785 2.44802C82.44 2.44802 82.5819 2.47493 82.6376 2.49025C82.6896 2.50457 82.6095 2.49272 82.4927 2.38709L85.1764 -0.579057C84.2901 -1.38091 83.1236 -1.55198 82.1785 -1.55198L82.1785 2.44802ZM82.4927 2.38709C82.4456 2.34449 82.4071 2.29801 82.3778 2.25288C82.349 2.20855 82.3344 2.17377 82.3283 2.15666C82.3178 2.12703 82.3385 2.16817 82.3385 2.32001L86.3385 2.32001C86.3385 1.35443 86.0812 0.239552 85.1764 -0.579057L82.4927 2.38709ZM82.3385 2.32001C82.3385 2.45855 82.3192 2.49055 82.332 2.45513C82.3391 2.43548 82.3544 2.40019 82.3829 2.3567C82.4119 2.31256 82.449 2.26853 82.4927 2.22894L85.1764 5.19509C86.0714 4.38534 86.3385 3.28802 86.3385 2.32001L82.3385 2.32001ZM82.533 2.1935C82.6522 2.09133 82.7279 2.08403 82.6637 2.10078C82.5982 2.11788 82.4468 2.14401 82.1785 2.14401L82.1785 6.14401C83.1048 6.14401 84.2526 5.9878 85.1361 5.23053L82.533 2.1935ZM82.1785 2.14401C81.9103 2.14401 81.7589 2.11788 81.6934 2.10078C81.6292 2.08403 81.7049 2.09133 81.8241 2.1935L79.221 5.23053C80.1045 5.9878 81.2523 6.14401 82.1785 6.14401L82.1785 2.14401ZM86.7007 5.63202L85.1876 4.32411L85.1812 4.33151L85.1749 4.33897L86.7007 5.63202ZM94.2847 14.8L95.8464 16.0494L94.2847 14.8ZM86.7007 14.8L85.1642 16.0804L86.7007 14.8ZM91.2607 7.93601L89.345 8.51071L89.358 8.55403L89.373 8.59671L91.2607 7.93601ZM89.7007 7.93601L87.813 7.27531V7.27531L89.7007 7.93601ZM89.7007 12.736L91.598 12.1036L89.7007 12.736ZM91.2607 12.736L89.3633 12.1036L91.2607 12.736ZM87.5007 10.216C87.5007 8.27154 87.8849 7.32812 88.2265 6.92506L85.1749 4.33897C83.9165 5.82391 83.5007 7.93649 83.5007 10.216L87.5007 10.216ZM88.2137 6.93992C88.5234 6.58173 89.1353 6.21601 90.4927 6.21601L90.4927 2.21601C88.426 2.21601 86.51 2.7943 85.1876 4.32411L88.2137 6.93992ZM90.4927 6.21601C91.8897 6.21601 92.4687 6.58598 92.7329 6.89872L95.7884 4.31731C94.4847 2.77405 92.5516 2.21601 90.4927 2.21601L90.4927 6.21601ZM92.7329 6.89872C93.0546 7.27945 93.4367 8.21566 93.4367 10.192L97.4367 10.192C97.4367 7.91237 97.0348 5.79258 95.7884 4.31731L92.7329 6.89872ZM93.4367 10.192C93.4367 12.145 93.0658 13.122 92.7229 13.5506L95.8464 16.0494C97.0395 14.558 97.4367 12.4631 97.4367 10.192L93.4367 10.192ZM92.7229 13.5506C92.4745 13.8612 91.9195 14.24 90.5167 14.24L90.5167 18.24C92.6018 18.24 94.5589 17.6588 95.8464 16.0494L92.7229 13.5506ZM90.5167 14.24C89.1204 14.24 88.5237 13.8636 88.2371 13.5196L85.1642 16.0804C86.4776 17.6564 88.4249 18.24 90.5167 18.24L90.5167 14.24ZM88.2371 13.5196C87.8813 13.0927 87.5007 12.1355 87.5007 10.216L83.5007 10.216C83.5007 12.4886 83.92 14.5873 85.1642 16.0804L88.2371 13.5196ZM93.1763 7.36132C93.0048 6.78943 92.6415 6.24555 92.0567 5.88002C91.5122 5.53971 90.9391 5.45601 90.4927 5.45601L90.4927 9.45601C90.4622 9.45601 90.2252 9.45232 89.9367 9.27201C89.6078 9.06648 89.4206 8.7626 89.345 8.51071L93.1763 7.36132ZM90.4927 5.45601C90.0421 5.45601 89.4813 5.54125 88.9461 5.86562C88.3774 6.21027 88.0062 6.72326 87.813 7.27531L91.5884 8.59672C91.5072 8.82877 91.324 9.10176 91.0193 9.28641C90.7481 9.45078 90.5273 9.45601 90.4927 9.45601L90.4927 5.45601ZM87.813 7.27531C87.6698 7.68429 87.6127 8.14079 87.5816 8.51392C87.5473 8.9256 87.5327 9.40979 87.5327 9.95201L91.5327 9.95201C91.5327 9.47024 91.5461 9.10643 91.5678 8.84611C91.5785 8.71676 91.5901 8.62931 91.5991 8.57597C91.6094 8.51532 91.6108 8.53277 91.5884 8.59671L87.813 7.27531ZM87.5327 9.95201L87.5327 10.528L91.5327 10.528L91.5327 9.95201L87.5327 9.95201ZM87.5327 10.528C87.5327 11.1228 87.5471 11.6461 87.5804 12.0837C87.6105 12.4787 87.665 12.9537 87.8033 13.3685L91.598 12.1036C91.6243 12.1824 91.5949 12.1213 91.5689 11.7803C91.5462 11.4819 91.5327 11.0692 91.5327 10.528L87.5327 10.528ZM87.8033 13.3685C87.9782 13.8931 88.318 14.4177 88.8794 14.7861C89.4195 15.1406 89.9965 15.24 90.4687 15.24L90.4687 11.24C90.5409 11.24 90.7898 11.2555 91.074 11.4419C91.3793 11.6423 91.5351 11.9149 91.598 12.1036L87.8033 13.3685ZM90.4687 15.24C90.9347 15.24 91.5099 15.1466 92.0524 14.8013C92.6227 14.4384 92.977 13.9115 93.158 13.3685L89.3633 12.1036C89.4323 11.8965 89.5986 11.6216 89.9049 11.4267C90.1834 11.2495 90.4187 11.24 90.4687 11.24L90.4687 15.24ZM93.158 13.3685C93.2925 12.9651 93.3489 12.5135 93.3801 12.1303C93.4141 11.7127 93.4287 11.222 93.4287 10.672L89.4287 10.672C89.4287 11.162 89.4153 11.5354 89.3933 11.8058C89.3685 12.1105 89.3408 12.171 89.3633 12.1036L93.158 13.3685ZM93.4287 10.672L93.4287 9.97602L89.4287 9.97602L89.4287 10.672L93.4287 10.672ZM93.4287 9.97602C93.4287 9.42638 93.4141 8.93682 93.3799 8.52186C93.3491 8.14698 93.2923 7.68638 93.1484 7.27531L89.373 8.59671C89.35 8.531 89.3514 8.51272 89.3618 8.57487C89.371 8.6293 89.3826 8.71842 89.3934 8.85017C89.4152 9.11521 89.4287 9.48565 89.4287 9.97602L93.4287 9.97602Z" fill="#151515" mask="url(#path-1-inside-1_37_2098)"/>
</g>
<defs>
<filter id="filter0_i_37_2098" x="0.323166" y="0.448013" width="95.1135" height="16.792" filterUnits="userSpaceOnUse" color-interpolation-filters="sRGB">
<feFlood flood-opacity="0" result="BackgroundImageFix"/>
<feBlend mode="normal" in="SourceGraphic" in2="BackgroundImageFix" result="shape"/>
<feColorMatrix in="SourceAlpha" type="matrix" values="0 0 0 0 0 0 0 0 0 0 0 0 0 0 0 0 0 0 127 0" result="hardAlpha"/>
<feOffset dy="2"/>
<feGaussianBlur stdDeviation="0.5"/>
<feComposite in2="hardAlpha" operator="arithmetic" k2="-1" k3="1"/>
<feColorMatrix type="matrix" values="0 0 0 0 0 0 0 0 0 0 0 0 0 0 0 0 0 0 0.25 0"/>
<feBlend mode="normal" in2="shape" result="effect1_innerShadow_37_2098"/>
</filter>
</defs>
</svg>
